# ProBuilder 5.1.1
# https://unity3d.com/unity/features/worldbuilding/probuilder
# 13.12.2023 01:25:27

mtllib ./Cube_(6).mtl
o Cube (6)

g Cube (6)
v -0.009664301 0 3.934452
v -0.1296643 0 3.934452
v -0.009664301 2.473359 3.934452
v -0.1296643 2.473359 3.934452
v -0.1296643 0 0
v -0.1296643 2.473359 0
v -0.009664301 0 0
v -0.009664301 2.473359 0

vt -0.009664301 0
vt -0.1296643 0
vt -0.009664301 2.473359
vt -0.1296643 2.473359
vt 3.934452 0
vt 0 0
vt 3.934452 2.473359
vt 0 2.473359
vt 0.1296643 0
vt 0.009664301 0
vt 0.1296643 2.473359
vt 0.009664301 2.473359
vt -3.934452 0
vt -3.934452 2.473359
vt 0.009664301 3.934452
vt 0.1296643 3.934452
vt -0.009664301 3.934452
vt -0.1296643 3.934452

vn 0 0 1
vn -1 0 0
vn 0 0 -1
vn 1 0 0
vn 0 1 0
vn 0 -1 0

usemtl ProBuilderDefault
f 3/3/1 4/4/1 2/2/1 1/1/1
f 4/7/2 6/8/2 5/6/2 2/5/2
f 6/11/3 8/12/3 7/10/3 5/9/3
f 8/8/4 3/14/4 1/13/4 7/6/4
f 8/10/5 6/9/5 4/16/5 3/15/5
f 1/17/6 2/18/6 5/2/6 7/1/6

