# ProBuilder 5.1.1
# https://unity3d.com/unity/features/worldbuilding/probuilder
# 13.12.2023 01:25:54

mtllib ./Cube_(11).mtl
o Cube (11)

g Cube (11)
v 0.1131793 2.235174E-08 4.768372E-07
v -1.956821 2.235174E-08 4.768372E-07
v 0.1131793 0.124758 4.768372E-07
v -1.956821 0.124758 4.768372E-07
v -1.956821 2.235174E-08 -0.8640084
v -1.956821 0.124758 -0.8640084
v 0.1131793 2.235174E-08 -0.8640084
v 0.1131793 0.124758 -0.8640084

vt 0.1131793 2.235174E-08
vt -1.956821 2.235174E-08
vt 0.1131793 0.124758
vt -1.956821 0.124758
vt 4.768372E-07 2.235174E-08
vt -0.8640084 2.235174E-08
vt 4.768372E-07 0.124758
vt -0.8640084 0.124758
vt 1.956821 2.235174E-08
vt -0.1131793 2.235174E-08
vt 1.956821 0.124758
vt -0.1131793 0.124758
vt 0.8640084 2.235174E-08
vt 0.8640084 0.124758
vt -0.1131793 -0.8640084
vt 1.956821 -0.8640084
vt 0.1131793 -0.8640084
vt -1.956821 -0.8640084

vn 0 0 1
vn -1 0 0
vn 0 0 -1
vn 1 0 0
vn 0 1 0
vn 0 -1 0

usemtl ProBuilderDefault
f 3/3/1 4/4/1 2/2/1 1/1/1
f 4/7/2 6/8/2 5/6/2 2/5/2
f 6/11/3 8/12/3 7/10/3 5/9/3
f 8/14/4 3/7/4 1/5/4 7/13/4
f 8/15/5 6/16/5 4/9/5 3/10/5
f 1/1/6 2/2/6 5/18/6 7/17/6

