# ProBuilder 5.1.1
# https://unity3d.com/unity/features/worldbuilding/probuilder
# 13.12.2023 01:25:04

mtllib ./Cube_(1).mtl
o Cube (1)

g Cube (1)
v 0 0 16.77746
v -11.77214 0 16.77746
v 0 0.07016371 16.77746
v -11.77214 0.07016371 16.77746
v -11.77214 0 9.536743E-07
v -11.77214 0.07016371 9.536743E-07
v 0 0 9.536743E-07
v 0 0.07016371 9.536743E-07

vt 0 0
vt -11.77214 0
vt 0 0.07016371
vt -11.77214 0.07016371
vt 16.77746 0
vt 16.77746 0.07016371
vt 11.77214 0
vt 11.77214 0.07016371
vt -16.77746 0
vt -16.77746 0.07016371
vt 0 16.77746
vt 11.77214 16.77746
vt -11.77214 16.77746

vn 0 0 1
vn -1 0 0
vn 0 0 -1
vn 1 0 0
vn 0 1 0
vn 0 -1 0

usemtl ProBuilderDefault
f 3/3/1 4/4/1 2/2/1 1/1/1
f 4/6/2 6/3/2 5/1/2 2/5/2
f 6/8/3 8/3/3 7/1/3 5/7/3
f 8/3/4 3/10/4 1/9/4 7/1/4
f 8/1/5 6/7/5 4/12/5 3/11/5
f 1/11/6 2/13/6 5/2/6 7/1/6

