# ProBuilder 5.1.1
# https://unity3d.com/unity/features/worldbuilding/probuilder
# 13.12.2023 01:25:40

mtllib ./Cube_(9).mtl
o Cube (9)

g Cube (9)
v -0.00966448 -0.1233205 3.402226
v -0.1296645 -0.1233205 3.402226
v -0.00966448 2.59668 3.402226
v -0.1296645 2.59668 3.402226
v -0.1296645 -0.1233205 0.5322261
v -0.1296645 2.59668 0.5322261
v -0.00966448 -0.1233205 0.5322261
v -0.00966448 2.59668 0.5322261

vt -0.00966448 -0.1233205
vt -0.1296645 -0.1233205
vt -0.00966448 2.59668
vt -0.1296645 2.59668
vt 3.402226 -0.1233205
vt 0.5322261 -0.1233205
vt 3.402226 2.59668
vt 0.5322261 2.59668
vt 0.1296645 -0.1233205
vt 0.00966448 -0.1233205
vt 0.1296645 2.59668
vt 0.00966448 2.59668
vt -0.5322261 -0.1233205
vt -3.402226 -0.1233205
vt -0.5322261 2.59668
vt -3.402226 2.59668
vt 0.00966448 3.402226
vt 0.1296645 3.402226
vt 0.00966448 0.5322261
vt 0.1296645 0.5322261
vt -0.00966448 0.5322261
vt -0.1296645 0.5322261
vt -0.00966448 3.402226
vt -0.1296645 3.402226

vn 0 0 1
vn -1 0 0
vn 0 0 -1
vn 1 0 0
vn 0 1 0
vn 0 -1 0

usemtl ProBuilderDefault
f 3/3/1 4/4/1 2/2/1 1/1/1
f 4/7/2 6/8/2 5/6/2 2/5/2
f 6/11/3 8/12/3 7/10/3 5/9/3
f 8/15/4 3/16/4 1/14/4 7/13/4
f 8/19/5 6/20/5 4/18/5 3/17/5
f 1/23/6 2/24/6 5/22/6 7/21/6

